<svg version="1.1" xmlns="http://www.w3.org/2000/svg" xmlns:xlink="http://www.w3.org/1999/xlink" width="69.91" height="86.84865" viewBox="0,0,69.91,86.84865"><g transform="translate(-206,-137.79835)"><g data-paper-data="{&quot;isPaintingLayer&quot;:true}" fill-rule="nonzero" stroke-linecap="butt" stroke-linejoin="miter" stroke-miterlimit="10" stroke-dasharray="" stroke-dashoffset="0" style="mix-blend-mode: normal"><path d="M270.88,155.117c-0.29,3.45 -1.77,6.5 -4.13,8.8c1.16,4.71 1.7,8.39 1.7,11.48v8c0,5.36 -0.37,9.24 -1.16,12.23c-1.41,5.31 -1.8,6.49 -2.05,7.18c-1.76,4.89 -4.43,8.76 -7.92,11.46c-3.55,2.74 -7.65,4.47 -12.2,5.16c-0.19,0.03 -0.39,0.06 -0.58,0.08c-0.95,0.09 -1.96,0.14 -3.01,0.14c-6.55,0 -12.89,-1.91 -18.82,-5.67c-10.08,-6.43 -11.75,-14.55 -11.65,-19.55c-0.04,-0.49 -0.06,-0.99 -0.06,-1.53c0,-2.65 0.53,-5.37 1.59,-8.07c1.86,-4.81 4.89,-7.31 7.1,-8.55c4.78,-2.63 8.42,-3.79 11.9,-3.79c3.48,0 6.8,1.24 9.5,3.53c-0.12,-1.38 -0.36,-2.85 -0.73,-4.41c-2.57,-0.09 -5,-0.82 -7.06,-2.12c-2.75,-1.76 -4.67,-3.91 -5.79,-6.45c-1.65,-3.68 -1.28,-6.88 -0.63,-8.99c1.69,-5.6 6.32,-9.65 12.74,-11.1c0.34,-0.08 0.69,-0.14 1.04,-0.19c1.7,-0.22 3.43,-0.44 5.18,-0.66c1.52,-0.28 4.26,-0.63 11.06,-1.07c0.7,-0.05 1.4,-0.03 2.09,0.06c1.95,0.24 4.87,1.09 7.68,3.75c3.69,3.48 4.24,7.36 4.24,9.36c0,0.31 -0.01,0.62 -0.03,0.92z" fill="#19b993" stroke="#ffffff" stroke-width="10"/><path d="M259.914,154.198c-0.118,1.407 -0.998,2.346 -2.639,2.814c-1.291,0.294 -2.582,0.587 -3.871,0.88c0.762,1.701 1.584,4.31 2.463,7.828c1.056,4.164 1.584,7.389 1.584,9.676v8.004c0,4.281 -0.265,7.419 -0.792,9.412c-0.938,3.519 -1.525,5.601 -1.759,6.245c-1.056,2.933 -2.493,5.103 -4.311,6.51c-2.053,1.583 -4.428,2.579 -7.124,2.99c-0.587,0.058 -1.231,0.088 -1.936,0.088c-4.457,0 -8.768,-1.319 -12.931,-3.958c-4.691,-2.991 -6.86,-6.538 -6.509,-10.644c-0.059,-0.293 -0.088,-0.674 -0.088,-1.144c0,-1.289 0.277,-2.652 0.836,-4.09c0.557,-1.437 1.304,-2.419 2.243,-2.947c2.872,-1.583 5.042,-2.375 6.509,-2.375c0.996,0 1.891,0.396 2.683,1.188c0.792,0.792 1.188,1.687 1.188,2.684c0,0.821 -0.352,1.525 -1.056,2.11c-0.235,0.176 -0.763,0.295 -1.583,0.353c-0.938,0.118 -1.511,0.015 -1.716,-0.309c-0.206,-0.321 -0.659,-0.776 -1.363,-1.363c-0.234,-0.116 -0.587,-0.058 -1.056,0.176c-0.763,0.295 -1.202,0.998 -1.319,2.111c0.059,0.587 0.088,1.438 0.088,2.551c-0.059,1.936 0.733,3.93 2.375,5.981c0.177,0.176 1.144,0.822 2.903,1.936c3.459,2.111 6.479,3.166 9.06,3.166c0.645,0 1.261,-0.058 1.848,-0.176c0.879,-0.116 2.022,-0.557 3.43,-1.319c1.993,-2.111 3.372,-5.043 4.135,-8.796c0.409,-2.111 0.732,-5.424 0.967,-9.939v-5.981c0,-3.694 -0.675,-7.74 -2.022,-12.139c0,-0.176 0,-0.439 0,-0.792c-0.235,-0.176 -0.439,-0.615 -0.616,-1.319c-0.294,-0.938 -0.47,-1.465 -0.527,-1.583c-0.059,-0.527 -0.147,-1.128 -0.264,-1.803c-0.118,-0.674 -0.44,-1.1 -0.968,-1.276c-0.294,-0.058 -1.29,0.207 -2.99,0.792c-1.878,0.587 -3.167,0.88 -3.871,0.88c-0.703,0 -1.29,-0.146 -1.759,-0.44c-0.822,-0.527 -1.35,-1.055 -1.583,-1.583c-0.235,-0.527 -0.294,-0.968 -0.176,-1.319c0.527,-1.816 2.08,-3.02 4.661,-3.606c1.817,-0.233 3.664,-0.469 5.542,-0.703c1.349,-0.293 4.69,-0.616 10.027,-0.968c0.469,0.059 0.968,0.338 1.495,0.836c0.527,0.498 0.792,0.951 0.792,1.361z" fill="#ffffff" stroke="none" stroke-width="1"/></g></g></svg>